<svg width="1280" height="151" viewBox="0 0 1280 151" fill="none" xmlns="http://www.w3.org/2000/svg">
<mask id="mask0_356_864" style="mask-type:alpha" maskUnits="userSpaceOnUse" x="0" y="0" width="1280" height="151">
<rect y="0.292725" width="1280" height="150.707" fill="#F5F7FB"/>
</mask>
<g mask="url(#mask0_356_864)">
<mask id="mask1_356_864" style="mask-type:luminance" maskUnits="userSpaceOnUse" x="-51" y="-186" width="1352" height="919">
<path d="M1300.09 -182.356L-49.247 -185.037L-51 730.045L1298.33 732.726L1300.09 -182.356Z" fill="white"/>
</mask>
<g mask="url(#mask1_356_864)">
<path d="M-199.473 108.179C-145.604 45.6023 -54.6127 33.2006 17.0403 78.5253C73.644 114.326 116.022 180.411 174.773 210.039C260.486 253.104 351.656 206.616 429.558 159.643C507.46 112.671 596.835 63.7773 683.68 102.612C717.722 117.893 747.467 145.405 779.586 166.287C811.705 187.283 849.796 201.886 882.206 188.338C916.417 173.994 935.161 132.852 959.173 101.215C1005.05 40.4528 1077.98 10.6286 1149.35 23.4672C1220.73 36.3058 1288.88 91.4607 1326.97 167.374" stroke="#BFE0E0" stroke-miterlimit="10"/>
<path d="M-197.044 131.289C-153.652 78.7579 -84.5739 59.6784 -21.4169 79.0206C-8.26854 83.0503 4.65183 88.6808 17.1191 96.0263C53.6222 117.718 84.816 152.095 117.93 181.901C136.339 198.638 155.426 213.775 176.658 224.341C182.275 227.097 187.892 229.51 193.51 231.58C224.973 243.082 257.019 243.488 288.517 236.573C321.477 229.318 354.002 214.513 385.294 197.76C400.94 189.441 416.249 180.549 431.221 171.886C484.242 140.878 542.772 110.225 601.816 104.737C630.157 102.163 658.375 104.964 686.24 116.458C720.059 130.366 749.584 155.704 781.256 174.754C788.22 178.886 795.297 182.789 802.712 186.121C828.888 198.184 857.326 203.731 882.535 192.685C916.634 177.769 935.94 137.2 960.4 106.136C963.669 102.024 967.05 97.9132 970.656 94.1456C1017.42 42.8793 1085.38 19.3365 1151.92 31.4792C1158.44 32.636 1164.96 34.136 1171.37 36.0932C1235.76 54.5229 1295.49 106.115 1330.66 174.816" stroke="#BFE0E0" stroke-miterlimit="10"/>
<path d="M-194.614 154.514C-152.345 101.18 -84.389 80.6115 -21.4529 97.8944C-8.30369 101.466 4.61735 106.754 17.0855 113.642C53.9283 134.076 85.6866 167.311 119.139 196.774C137.773 213.283 156.972 228.42 178.204 238.871C183.821 241.627 189.439 244.041 195.057 246.111C226.744 257.612 258.79 258.019 290.177 250.418C323.026 242.59 354.99 227.097 386.395 210.231C402.041 201.797 417.462 193.02 432.546 184.585C485.903 154.265 544.766 125.785 604.035 120.527C632.601 117.953 660.82 120.297 688.461 130.761C722.171 143.296 751.362 166.459 782.477 183.565C789.329 187.353 796.294 190.799 803.597 193.787C829.326 204.476 857.316 208.993 882.301 197.604C916.176 182.115 936.156 142.119 961.065 111.628C964.446 107.517 967.939 103.634 971.432 99.8666C1018.98 49.8602 1087.05 27.6902 1153.82 39.9477C1160.34 41.1045 1166.86 42.7188 1173.38 44.5619C1238 62.992 1298.06 114.127 1333.91 182.716" stroke="#BFE0E0" stroke-miterlimit="10"/>
<path d="M-192.072 177.625C-151.039 123.488 -84.0915 101.43 -21.4889 116.654C-8.33902 119.883 4.5831 124.598 17.1644 131.143C54.2345 150.319 86.6696 182.411 120.572 211.533C139.432 227.813 158.743 242.836 180.088 253.287C185.705 256.044 191.323 258.457 197.053 260.527C228.853 272.029 261.012 272.322 292.175 264.148C324.8 255.748 356.428 239.568 387.833 222.473C403.591 213.925 419.013 205.262 434.209 197.057C488.014 167.538 547.211 141.118 606.591 136.089C635.382 133.629 663.602 135.515 691.021 144.835C724.508 156.111 753.366 177.101 784.146 192.261C790.887 195.592 797.74 198.694 804.819 201.225C830.101 210.54 857.644 213.912 882.517 202.18C916.281 186.004 936.709 146.696 962.179 116.892C965.56 112.895 969.165 109.013 972.771 105.36C1021.1 56.4988 1089.28 35.7016 1156.17 48.0737C1162.68 49.3449 1169.32 50.8451 1175.72 52.688C1240.68 71.0044 1300.97 121.911 1337.38 190.386" stroke="#BFE0E0" stroke-miterlimit="10"/>
<path d="M-189.643 200.736C-149.732 145.796 -83.9065 122.249 -21.525 135.527C-8.37429 138.299 4.54852 142.671 17.2431 148.759C54.5403 166.791 87.6525 197.627 122.006 226.406C140.978 242.457 160.515 257.366 181.972 267.932C187.588 270.689 193.319 273.102 198.937 275.172C230.849 286.674 263.121 286.853 294.172 277.993C326.686 268.906 357.866 252.039 389.271 234.944C405.03 226.282 420.563 217.848 435.871 209.757C490.012 180.925 549.655 156.679 609.147 151.764C638.163 149.42 666.271 150.734 693.692 158.91C726.957 168.813 755.595 187.629 785.817 200.844C792.446 203.716 799.187 206.361 806.155 208.548C830.99 216.375 858.197 218.946 882.846 206.756C916.498 190.122 937.488 151.273 963.406 122.042C966.899 118.159 970.505 114.392 974.222 110.739C1023.45 63.2522 1091.74 43.7135 1158.74 56.2002C1165.37 57.4717 1171.89 58.9716 1178.41 60.8147C1243.59 79.0172 1304.21 129.582 1341.19 197.943" stroke="#BFE0E0" stroke-miterlimit="10"/>
<path d="M-187.213 223.961C-148.426 168.218 -83.7216 143.067 -21.5612 154.401C-8.40984 156.829 4.62629 160.744 17.2093 166.374C54.7338 183.149 88.5228 212.842 123.214 241.278C142.412 257.101 162.061 272.011 183.518 282.462C189.135 285.219 194.865 287.632 200.596 289.703C232.62 301.205 265.005 301.155 295.945 291.837C328.235 282.064 359.079 264.624 390.371 247.414C406.13 238.637 421.776 230.318 437.196 222.342C491.673 194.311 551.761 172.125 611.366 167.44C640.494 165.21 668.716 166.066 695.914 173.098C728.956 181.743 757.373 198.271 787.149 209.54C793.667 211.955 800.296 214.255 807.152 215.985C831.54 222.439 858.3 223.865 882.724 211.331C916.266 194.125 937.704 155.734 964.183 127.19C967.789 123.308 971.394 119.655 975.223 116.231C1025.24 69.89 1093.64 51.7241 1160.86 64.4401C1167.49 65.7115 1174.01 67.2115 1180.53 69.0546C1245.93 87.2574 1306.9 137.479 1344.55 205.614" stroke="#BFE0E0" stroke-miterlimit="10"/>
<path d="M-184.784 247.072C-147.231 190.526 -83.4239 163.886 -21.7094 173.16C-8.66958 175.13 4.47986 178.588 17.176 183.875C54.9278 199.392 89.3936 227.942 124.535 256.037C143.846 271.631 163.72 286.427 185.29 296.879C191.019 299.635 196.637 302.048 202.368 304.004C234.505 315.507 266.889 315.342 297.831 305.452C329.897 295.107 360.404 276.98 391.698 259.541C407.569 250.765 423.215 242.446 438.747 234.699C493.56 207.469 554.094 187.343 613.811 182.887C643.163 180.772 671.386 181.056 698.361 187.058C731.294 194.33 759.377 208.798 788.708 218.122C795.113 220.193 801.631 222.036 808.375 223.422C832.316 228.503 858.74 228.899 882.94 216.021C916.258 198.243 938.37 160.425 965.41 132.569C969.015 128.801 972.845 125.263 976.675 121.839C1027.36 76.7574 1096.1 59.9649 1163.32 72.7952C1169.95 74.0666 1176.47 75.5666 1183.1 77.4099C1248.84 95.4991 1310.03 145.378 1348.24 213.399" stroke="#BFE0E0" stroke-miterlimit="10"/>
<path d="M-182.354 270.183C-145.925 212.948 -83.2388 184.59 -21.7457 192.033C-8.70501 193.546 4.44506 196.66 17.2548 201.376C55.3463 215.635 90.3766 243.043 125.968 270.795C145.504 286.162 165.379 300.957 187.173 311.295C192.903 314.051 198.633 316.465 204.364 318.421C236.726 329.924 269.111 329.645 299.941 319.068C331.896 308.151 361.955 289.222 393.248 271.783C409.12 262.893 424.878 254.688 440.522 247.17C495.671 220.628 556.538 202.79 616.479 198.448C646.056 196.448 674.168 196.161 701.033 201.133C733.743 207.146 761.606 219.326 790.377 226.704C796.671 228.318 803.078 229.703 809.71 230.746C833.092 234.338 859.18 233.818 883.269 220.483C916.475 202.132 939.036 164.888 966.637 137.604C970.355 133.951 974.184 130.413 978.126 127.104C1029.6 83.2817 1098.44 67.7476 1165.89 80.8071C1172.52 82.0786 1179.15 83.5787 1185.67 85.4219C1251.64 103.511 1313.16 153.048 1352.05 220.842" stroke="#BFE0E0" stroke-miterlimit="10"/>
<path d="M-179.925 293.408C-144.619 235.37 -82.9417 205.524 -21.7819 210.907C-8.74056 212.077 4.4106 214.619 17.2209 218.991C55.5398 231.993 91.247 258.258 127.177 285.668C146.938 300.691 166.925 315.487 188.72 325.825C194.449 328.582 200.179 330.881 205.91 332.951C238.385 344.34 270.882 344.061 301.601 332.912C333.333 321.308 363.055 301.807 394.349 284.139C410.221 275.135 426.091 267.045 441.847 259.755C497.332 234.014 558.645 218.236 618.698 214.124C648.5 212.124 676.612 211.493 703.254 215.321C735.855 219.961 763.272 230.082 791.71 235.4C797.892 236.556 804.187 237.598 810.708 238.183C833.643 240.402 859.283 238.851 883.147 225.172C916.13 206.25 939.364 169.578 967.414 142.868C971.244 139.329 975.073 135.905 979.128 132.596C1031.38 89.9197 1100.34 75.8729 1167.89 89.047C1174.53 90.3185 1181.16 91.933 1187.79 93.662C1253.98 111.638 1315.85 160.946 1355.3 228.627" stroke="#BFE0E0" stroke-miterlimit="10"/>
<path d="M-177.496 316.519C-143.424 257.678 -82.7564 226.228 -21.9303 229.666C-8.88808 230.378 4.26375 232.577 17.1874 236.492C55.7335 248.236 92.1175 273.359 128.498 300.426C148.485 315.222 168.584 329.903 190.491 340.241C196.221 342.998 201.951 345.297 207.794 347.367C240.381 358.756 272.991 358.363 303.486 346.642C334.994 334.466 364.381 314.278 395.562 296.496C411.547 287.376 427.417 279.401 443.285 272.341C499.106 247.287 560.864 233.683 621.029 229.799C651.056 227.914 679.169 226.712 705.589 229.509C737.966 232.891 765.163 240.723 793.043 244.21C799.113 244.908 805.296 245.607 811.593 245.848C834.08 246.694 859.386 243.999 883.026 229.976C915.897 210.482 939.692 174.383 968.191 148.36C972.02 144.821 975.962 141.512 980.016 138.432C1033.06 97.015 1102.24 84.2268 1169.9 97.5155C1176.53 98.787 1183.16 100.402 1189.8 102.13C1256.33 120.107 1318.42 168.958 1358.43 236.525" stroke="#BFE0E0" stroke-miterlimit="10"/>
<path d="M-175.066 339.629C-142.118 279.986 -82.4589 247.047 -21.9664 248.539C-8.92352 248.909 4.22919 250.65 17.2662 254.108C56.152 264.594 93.1005 288.574 129.819 315.299C149.919 329.866 170.243 344.548 192.263 354.772C197.992 357.414 203.835 359.828 209.565 361.898C242.265 373.287 274.988 372.78 305.371 360.373C336.768 347.509 365.707 326.634 396.888 308.738C412.873 299.504 428.968 291.643 444.835 284.812C500.992 260.559 563.196 249.016 623.474 245.246C653.725 243.476 681.839 241.702 708.036 243.355C740.191 245.364 767.055 251.022 794.601 252.564C800.56 252.919 806.632 253.045 812.816 252.943C834.857 252.415 859.714 248.689 883.242 234.324C916.002 214.257 940.246 178.617 969.306 153.281C973.248 149.857 977.302 146.662 981.356 143.582C1035.18 103.425 1104.47 92.0097 1172.36 105.413C1178.99 106.685 1185.74 108.299 1192.37 110.028C1259.12 127.891 1321.44 176.514 1362.24 243.854" stroke="#BFE0E0" stroke-miterlimit="10"/>
<path d="M-172.524 362.74C-140.699 302.294 -82.1643 269.352 -21.8899 267.299C-8.84543 266.867 4.3075 268.495 17.3451 271.609C56.4583 280.838 94.0836 303.675 131.252 330.058C151.577 344.396 172.014 358.964 194.034 369.302C199.763 371.944 205.606 374.358 211.449 376.429C244.261 387.818 277.096 387.197 307.369 374.217C338.542 360.782 367.144 339.219 398.326 321.208C414.311 311.975 430.518 304.115 446.498 297.512C502.99 274.061 565.64 264.577 626.03 261.036C656.505 259.381 684.509 257.149 710.707 257.659C742.753 258.409 769.283 261.893 796.383 261.375C802.23 261.272 808.19 261.055 814.264 260.495C835.744 258.593 860.266 253.838 883.571 239.014C916.107 218.375 941.024 183.308 970.532 158.545C974.474 155.235 978.641 152.041 982.807 149.075C1037.42 110.064 1106.82 100.021 1174.82 113.654C1181.56 115.04 1188.19 116.54 1194.82 118.269C1261.81 136.017 1324.46 184.298 1365.82 251.525" stroke="#BFE0E0" stroke-miterlimit="10"/>
<path d="M-170.095 385.965C-139.505 324.715 -81.8637 288.57 -21.926 286.172C-8.88134 285.626 4.27291 286.567 17.4239 289.224C56.7643 297.195 95.0665 318.89 132.686 344.93C153.123 359.155 173.786 373.608 195.918 383.833C201.76 386.475 207.49 388.889 213.333 390.845C246.37 402.235 279.206 401.499 309.367 387.833C340.316 373.825 368.47 351.576 399.765 333.336C415.75 323.988 432.069 316.242 448.161 309.869C504.989 287.104 567.972 279.794 628.586 276.483C659.287 274.943 687.291 272.139 713.267 271.619C745.09 270.995 771.287 272.306 797.941 269.957C803.677 269.396 809.525 268.836 815.486 267.933C836.52 264.657 860.707 258.757 883.787 243.59C916.212 222.378 941.578 187.884 971.647 163.809C975.701 160.614 979.867 157.534 984.146 154.683C1039.54 116.931 1109.16 108.262 1177.28 122.009C1184.02 123.395 1190.65 124.895 1197.28 126.738C1264.6 144.487 1327.48 192.426 1369.52 259.425" stroke="#BFE0E0" stroke-miterlimit="10"/>
<path d="M-167.665 409.076C-138.198 347.138 -81.6785 309.274 -22.0746 305.046C-9.02927 304.156 4.12608 304.526 17.3902 306.84C56.9579 313.553 95.9369 334.105 133.894 359.689C154.557 373.685 175.332 388.024 197.577 398.249C203.419 400.891 209.261 403.305 215.105 405.261C248.254 416.651 281.202 415.916 311.252 401.563C342.09 386.868 369.796 363.932 401.09 345.692C417.188 336.23 433.507 328.599 449.711 322.34C506.875 300.377 570.304 295.127 631.03 292.045C661.956 290.619 689.961 287.243 715.714 285.693C747.427 283.697 773.291 282.948 799.499 278.539C805.123 277.635 810.859 276.617 816.709 275.256C837.296 270.492 861.035 263.676 884.003 248.166C916.204 226.382 942.244 192.461 972.874 168.958C977.04 165.764 981.207 162.798 985.597 160.062C1041.66 123.57 1111.51 116.159 1179.85 130.135C1186.59 131.521 1193.33 133.022 1199.97 134.865C1267.51 152.5 1330.73 200.096 1373.33 266.982" stroke="#BFE0E0" stroke-miterlimit="10"/>
<path d="M-165.236 432.187C-136.892 369.445 -81.3808 329.978 -22.1105 323.805C-9.06436 322.458 4.20412 322.484 17.4691 324.341C57.3766 329.796 96.92 349.206 135.328 374.447C156.216 388.215 176.991 402.44 199.348 412.665C205.19 415.307 211.033 417.721 216.876 419.677C250.138 431.067 283.086 430.218 313.025 415.293C343.639 400.026 371.009 376.402 402.191 357.934C418.289 348.357 434.72 340.841 451.037 334.81C508.537 313.535 572.411 310.459 633.249 307.605C664.399 306.295 692.293 302.461 717.935 299.767C749.426 296.512 774.957 293.589 800.832 287.12C806.344 285.758 811.969 284.283 817.595 282.578C837.734 276.441 861.025 268.595 883.77 252.626C915.859 230.156 942.348 196.922 973.539 174.107C977.705 171.027 982.096 168.176 986.486 165.439C1043.34 130.093 1113.29 124.169 1181.74 138.26C1188.49 139.646 1195.23 141.261 1201.86 142.99C1269.63 160.626 1333.19 207.879 1376.35 274.651" stroke="#BFE0E0" stroke-miterlimit="10"/>
<path d="M-162.806 455.412C-135.698 391.867 -81.1959 350.797 -22.1467 342.678C-9.09968 340.874 4.16943 340.557 17.4353 341.956C57.5701 346.154 97.7903 364.421 136.536 389.32C157.537 402.859 178.537 417.084 201.007 427.195C206.849 429.838 212.692 432.137 218.647 434.208C252.022 445.484 285.082 444.634 314.91 429.023C345.301 413.184 372.334 388.873 403.517 370.29C419.615 360.599 436.159 353.197 452.587 347.396C510.423 326.922 574.743 325.905 635.693 323.167C667.068 321.857 694.963 317.565 720.382 313.841C751.763 309.214 776.961 304.116 802.277 295.816C807.678 293.997 813.191 292.178 818.705 290.015C838.285 282.505 861.241 273.514 883.873 257.316C915.852 234.274 942.901 201.499 974.541 179.371C978.819 176.405 983.21 173.554 987.713 170.932C1045.35 136.846 1115.52 132.295 1184.09 146.386C1190.83 147.773 1197.58 149.387 1204.32 151.116C1272.43 168.753 1336.32 215.778 1380.16 282.323" stroke="#BFE0E0" stroke-miterlimit="10"/>
<path d="M-160.377 478.523C-134.391 414.175 -80.8981 371.501 -22.2952 361.552C-9.35974 359.29 4.02271 358.516 17.4018 359.457C57.7639 362.397 98.661 379.522 137.857 404.078C159.084 417.389 180.197 431.5 202.779 441.611C208.621 444.254 214.576 446.553 220.531 448.624C254.131 459.901 287.192 458.937 316.908 442.753C347.187 426.342 373.772 401.23 404.955 382.647C421.166 372.956 437.709 365.554 454.249 359.982C512.421 340.309 577.187 341.352 638.25 338.843C669.849 337.647 697.745 332.784 722.942 327.916C754.1 321.915 778.964 314.758 803.947 304.399C809.236 302.236 814.638 299.959 820.04 297.453C839.173 288.569 861.793 278.548 884.089 261.892C915.844 238.277 943.567 206.076 975.655 184.52C980.046 181.669 984.437 178.933 988.939 176.425C1047.36 143.484 1117.65 140.306 1186.32 154.627C1193.07 156.013 1199.92 157.628 1206.55 159.357C1274.89 176.765 1339 223.447 1383.4 289.879" stroke="#BFE0E0" stroke-miterlimit="10"/>
<path d="M-157.947 501.634C-133.085 436.483 -80.7129 392.205 -22.3312 380.311C-9.39501 377.706 3.98829 376.474 17.4807 376.958C58.1826 378.641 99.6442 394.623 139.291 418.837C160.743 431.919 181.968 446.031 204.55 456.027C210.392 458.67 216.347 460.969 222.303 463.04C256.015 474.317 289.188 473.239 318.793 456.483C348.849 439.385 375.098 413.7 406.281 394.889C422.492 385.084 439.148 377.796 455.8 372.453C514.307 353.467 579.407 356.685 640.694 354.404C672.518 353.324 700.414 347.888 725.388 341.99C756.325 334.731 780.968 325.4 805.392 312.981C810.57 310.36 815.86 307.74 821.15 304.776C839.836 294.518 862.009 283.467 884.193 266.468C915.836 242.281 944.008 210.652 976.657 189.784C981.048 186.933 985.551 184.311 990.166 181.918C1049.26 150.237 1119.77 148.432 1188.67 162.867C1195.52 164.253 1202.27 165.868 1209.01 167.597C1277.57 185.006 1342.02 231.346 1387.1 297.55" stroke="#BFE0E0" stroke-miterlimit="10"/>
</g>
<mask id="mask2_356_864" style="mask-type:luminance" maskUnits="userSpaceOnUse" x="-77" y="-147" width="1483" height="458">
<path d="M1405.46 -143.095L-75.8271 -146.038L-76.6953 307.163L1404.59 310.105L1405.46 -143.095Z" fill="white"/>
</mask>
<g mask="url(#mask2_356_864)">
<path d="M-131.675 152.744C-80.0228 121.803 -4.0113 109.604 66.7266 118.015C104.011 122.451 135.866 131.295 163.316 146.702C192.072 162.848 230.187 172.894 269.347 174.105C309.255 175.374 348.806 167.975 384.157 156.771C440.458 138.925 484.538 109.215 553.513 110.655C581.739 111.22 610.605 118.869 626.187 133.176C643.074 148.788 639.01 172.403 614.312 184.194C587.65 196.887 546.075 187.684 515.793 187.341C481.959 186.934 450.073 193.952 427.889 211.243C403.177 230.455 403.035 255.494 386.728 278.291C375.295 294.357 357.042 308.484 332.73 314.157C301.591 321.46 271.417 313.412 241.432 304.118C212.101 295.053 177.156 289.488 145.938 289.54C94.2507 289.664 47.0238 303.449 11.6463 328.135C-0.239857 336.439 -10.6326 345.822 -19.1575 356.002C-24.31 362.167 -42.1039 380.6 -39.1277 388.31C-58.659 337.852 -78.564 287.338 -98.4691 236.879C-101.446 229.452 -138.694 156.979 -131.675 152.744Z" fill="#2A9EF4"/>
<path d="M1652.15 48.8938L1650.56 49.1173C1631.15 79.8965 1575.43 89.7562 1526.37 85.0135C1477.21 80.3271 1430.14 64.7115 1381.27 57.8163C1308.66 47.5884 1235.37 58.093 1176.34 84.6014C1102.72 117.709 1058.5 169.286 984.226 202.562C955.227 215.591 919.126 227.302 883.786 232.331C834.89 239.258 785.841 228.681 773.658 196.819C757.289 154.185 822.391 128.709 883.335 126.167C936.615 123.95 991.205 121 1016.88 88.0802C1042.64 54.991 1053.65 19.6064 1095.39 -8.29589C1131.89 -32.753 1181.64 -48.7428 1236.51 -50.22C1276.79 -51.3297 1313.7 -43.7785 1352.95 -39.2818C1423.59 -31.1538 1492.93 -24.1614 1559.98 -43.4026C1587.66 -51.3353 1612.73 -62.3323 1634.07 -75.6028C1644.83 -82.2661 1654.66 -89.4978 1663.46 -97.1848C1669.92 -102.894 1678.45 -118.625 1687.15 -122.12C1685.66 -121.5 1686.87 -121.951 1685.38 -121.388C1686.03 -121.103 1686.59 -121.555 1687.34 -121.27L1652.15 48.8938Z" fill="#313131"/>
<path d="M1275.02 -87.9936L1273.63 -87.9145C1252.06 -110.846 1202.97 -109.797 1161.95 -97.436C1120.84 -85.1076 1083.28 -63.8199 1042.78 -49.658C982.592 -28.6316 918.427 -25.1511 863.801 -37.7253C795.664 -53.4469 749.558 -89.891 680.835 -105.645C653.998 -111.827 621.326 -115.683 590.395 -113.974C547.604 -111.584 507.545 -94.2542 502.376 -65.043C495.403 -25.9446 555.034 -15.2795 607.373 -23.4495C653.129 -30.5962 700.121 -37.3399 727.377 -13.6472C754.741 10.1743 769.903 38.4549 810.027 55.1485C845.122 69.7956 890.127 74.9809 937.114 66.9348C971.618 61.0483 1001.83 48.3565 1034.53 37.8697C1093.39 18.9646 1151.32 1.24854 1211.59 6.27049C1236.47 8.33463 1259.63 13.4523 1279.98 21.1401C1290.23 24.9921 1299.79 29.4867 1308.54 34.5433C1314.98 38.3116 1324.83 50.2671 1332.81 51.7696C1331.43 51.495 1332.54 51.6729 1331.18 51.4465C1331.69 51.0932 1332.24 51.3832 1332.83 51.0139L1275.02 -87.9936Z" fill="#189249"/>
</g>
</g>
</svg>
